Coordinates
version=1
nRows=27
nColumns=12
inDegrees=yes

Units are S.I. units (second, meters, Newtons, ...)
Angles are in degrees

endheader
time	SC_y	SC_z	SC_x	AC_y	AC_z	AC_x	GH_y	GH_z	GH_yy	EL_x	PS_y
       0.0              -21.12          37.13          5.097          61.08         -3.367         -3.733          70.28          44.59          132.4          117.4           36.7
   0.01486              -21.12          37.13          5.104          61.08         -3.366          -3.73          70.26          44.59          132.4          117.4          36.71
   0.02972              -21.13          37.13          5.111          61.08         -3.365         -3.727          70.23          44.59          132.4          117.4          36.73
   0.04459              -21.13          37.13          5.119          61.08         -3.364         -3.724           70.2          44.59          132.3          117.4          36.74
   0.05945              -21.14          37.13          5.127          61.08         -3.363          -3.72          70.17          44.58          132.3          117.4          36.75
   0.07431              -21.14          37.13          5.135          61.08         -3.362         -3.717          70.14          44.58          132.2          117.4          36.77
   0.08917              -21.15          37.13          5.144          61.08         -3.361         -3.713           70.1          44.58          132.2          117.4          36.78
     0.104              -21.15          37.13          5.154          61.08         -3.359         -3.709          70.06          44.57          132.1          117.3           36.8
    0.1189              -21.16          37.13          5.165          61.08         -3.358         -3.705          70.02          44.57          132.1          117.3          36.82
    0.1338              -21.17          37.13          5.176          61.08         -3.356           -3.7          69.98          44.57          132.0          117.3          36.84
    0.1486              -21.17          37.13          5.188          61.08         -3.354         -3.695          69.93          44.56          132.0          117.3          36.86
    0.1635              -21.18          37.13          5.201          61.08         -3.353          -3.69          69.88          44.56          131.9          117.3          36.88
    0.1783              -21.19          37.13          5.215          61.08         -3.351         -3.684          69.83          44.55          131.9          117.3           36.9
    0.1932               -21.2          37.13           5.23          61.08         -3.348         -3.677          69.77          44.55          131.8          117.3          36.93
    0.2081              -21.21          37.13          5.246          61.08         -3.346         -3.671          69.71          44.54          131.7          117.3          36.96
    0.2229              -21.22          37.13          5.264          61.08         -3.344         -3.663          69.64          44.54          131.6          117.3          36.99
    0.2378              -21.23          37.13          5.283          61.08         -3.341         -3.655          69.56          44.53          131.5          117.3          37.02
    0.2527              -21.25          37.13          5.304          61.08         -3.338         -3.647          69.48          44.52          131.4          117.3          37.05
    0.2675              -21.26          37.13          5.327          61.07         -3.335         -3.637          69.39          44.51          131.3          117.3          37.09
    0.2824              -21.28          37.13          5.352          61.07         -3.331         -3.627          69.29           44.5          131.2          117.3          37.14
    0.2972              -21.29          37.13           5.38          61.07         -3.327         -3.615          69.19           44.5          131.0          117.3          37.18
    0.3121              -21.31          37.13           5.41          61.07         -3.323         -3.602          69.07          44.48          130.9          117.3          37.23
     0.327              -21.33          37.13          5.443          61.07         -3.318         -3.589          68.94          44.47          130.7          117.3          37.29
    0.3418              -21.36          37.13           5.48          61.07         -3.313         -3.573          68.79          44.46          130.5          117.3          37.35
    0.3567              -21.38          37.13          5.522          61.07         -3.307         -3.556          68.63          44.45          130.3          117.3          37.42
    0.3715              -21.41          37.13          5.568          61.07           -3.3         -3.537          68.45          44.43          130.1          117.3           37.5
    0.3864              -21.44          37.13          5.619          61.07         -3.293         -3.515          68.25          44.41          129.9          117.2          37.59
